# xmcd
#
# Track frame offsets:
#	150
#	15710
#	34168
#	55159
#	73044
#	87482
#	105110
#	117513
#	140368
#	154455
#	173253
#	190504
#	207784
#	224578
#	237102
#	247984
#	264851
#	278518
#	298995
#	316643
# Disc length: 4301 seconds
# Revision: 2
# Processed by: cddbd v1.5.2PL0 Copyright (c) Steve Scherf et al.
#
# Submitted via: libkcddb 0.31
#
DISCID=1210cb14
DTITLE=Various Artist - Frisch Gepresst 2 - 40 Heimspiele in München[CD2]
DYEAR=2006
DGENRE=Rock
TTITLE0=Kanmantu - Stardust Café
TTITLE1=Lali Puna - The Daily Match
TTITLE2=Les Babacools - Lluvia Sol
TTITLE3=Main Concept - Was geht'n?
TTITLE4=Monophox - Dear Foe
TTITLE5=Monta - Long Live The Quiet
TTITLE6=Ms. John Soda - A Nod On Hold
TTITLE7=Munk and James Murphy - Kick Out The Chairs
TTITLE8=Nova International - Swirled
TTITLE9=Quadro Nuevo - Café Europa
TTITLE10=Raggabund - Babygirl
TTITLE11=Hans Söllner and Bayaman'Sissdem - A Drecksau is a Drecksau
TTITLE12=Sorgente - What's Up Alright
TTITLE13=The Subrosa Falcon Association - Quem quer saber?
TTITLE14=Tiptop - Seltsam
TTITLE15=Triska - Homer Wells
TTITLE16=Phil Vetter - Pimp My Ride
TTITLE17=Vi4r2ue1ns - Komm zurück
TTITLE18=Ziad - Doo You Really Want Me (Liberty)
TTITLE19=G.Rag y los Hermanos Patchekos - München 7 Abspann
EXTD=
EXTT0=
EXTT1=
EXTT2=
EXTT3=
EXTT4=
EXTT5=
EXTT6=
EXTT7=
EXTT8=
EXTT9=
EXTT10=
EXTT11=
EXTT12=
EXTT13=
EXTT14=
EXTT15=
EXTT16=
EXTT17=
EXTT18=
EXTT19=
PLAYORDER=
